<!DOCTYPE svg PUBLIC "-//W3C//DTD SVG 1.1//EN" "http://www.w3.org/Graphics/SVG/1.1/DTD/svg11.dtd">
<!-- Created with ASCIItoSVG -->
<svg width="396px" height="192px" version="1.1" xmlns="http://www.w3.org/2000/svg" xmlns:xlink="http://www.w3.org/1999/xlink">
  <defs>
    <filter id="dsFilter" width="150%" height="150%">
      <feOffset result="offOut" in="SourceGraphic" dx="2" dy="2"/>
      <feColorMatrix result="matrixOut" in="offOut" type="matrix" values="0.2 0 0 0 0 0 0.2 0 0 0 0 0 0.2 0 0 0 0 0 1 0"/>
      <feGaussianBlur result="blurOut" in="matrixOut" stdDeviation="3"/>
      <feBlend in="SourceGraphic" in2="blurOut" mode="normal"/>
    </filter>
    <marker id="iPointer"
      viewBox="0 0 10 10" refX="5" refY="5"
      markerUnits="strokeWidth"
      markerWidth="8" markerHeight="15"
      orient="auto">
      <path d="M 10 0 L 10 10 L 0 5 z" />
    </marker>
    <marker id="Pointer"
      viewBox="0 0 10 10" refX="5" refY="5"
      markerUnits="strokeWidth"
      markerWidth="8" markerHeight="15"
      orient="auto">
      <path d="M 0 0 L 10 5 L 0 10 z" />
    </marker>
  </defs>
  <g id="closed" filter="url(#dsFilter)" stroke="#000" stroke-width="2" fill="none">
    <path id="closed0" fill="#fff" filter="url(#dsFilter)" d="M 4.5 18 Q 4.5 8 14.5 8 L 13.5 8 L 22.5 8 L 31.5 8 L 40.5 8 L 49.5 8 L 58.5 8 L 67.5 8 L 76.5 8 L 85.5 8 L 94.5 8 L 103.5 8 L 112.5 8 L 121.5 8 L 130.5 8 L 139.5 8 L 148.5 8 L 157.5 8 L 166.5 8 L 175.5 8 L 184.5 8 L 193.5 8 L 202.5 8 L 211.5 8 L 220.5 8 L 229.5 8 L 238.5 8 L 247.5 8 L 256.5 8 L 265.5 8 L 274.5 8 L 283.5 8 L 292.5 8 L 301.5 8 L 310.5 8 L 319.5 8 L 328.5 8 L 337.5 8 L 346.5 8 L 355.5 8 L 364.5 8 L 373.5 8 L 372.5 8 Q 382.5 8 382.5 18 L 382.5 24 L 382.5 40 L 382.5 56 L 382.5 72 L 382.5 88 L 382.5 104 L 382.5 120 L 382.5 136 L 382.5 152 L 382.5 158 Q 382.5 168 372.5 168 L 373.5 168 L 364.5 168 L 355.5 168 L 346.5 168 L 337.5 168 L 328.5 168 L 319.5 168 L 310.5 168 L 301.5 168 L 292.5 168 L 283.5 168 L 274.5 168 L 265.5 168 L 256.5 168 L 247.5 168 L 238.5 168 L 229.5 168 L 220.5 168 L 211.5 168 L 202.5 168 L 193.5 168 L 184.5 168 L 175.5 168 L 166.5 168 L 157.5 168 L 148.5 168 L 139.5 168 L 130.5 168 L 121.5 168 L 112.5 168 L 103.5 168 L 94.5 168 L 85.5 168 L 76.5 168 L 67.5 168 L 58.5 168 L 49.5 168 L 40.5 168 L 31.5 168 L 22.5 168 L 13.5 168 L 14.5 168 Q 4.5 168 4.5 158 L 4.5 152 L 4.5 136 L 4.5 120 L 4.5 104 L 4.5 88 L 4.5 72 L 4.5 56 L 4.5 40 L 4.5 24 Z" />
    <path id="closed1" fill="#fff" filter="url(#dsFilter)" d="M 40.5 72 L 49.5 72 L 58.5 72 L 67.5 72 L 76.5 72 L 85.5 72 L 94.5 72 L 103.5 72 L 112.5 72 L 121.5 72 L 130.5 72 L 139.5 72 L 148.5 72 L 157.5 72 L 166.5 72 L 175.5 72 L 175.5 88 L 175.5 104 L 175.5 120 L 175.5 136 L 175.5 152 L 166.5 152 L 157.5 152 L 148.5 152 L 139.5 152 L 130.5 152 L 121.5 152 L 112.5 152 L 103.5 152 L 94.5 152 L 85.5 152 L 76.5 152 L 67.5 152 L 58.5 152 L 49.5 152 L 40.5 152 L 40.5 136 L 40.5 120 L 40.5 104 L 40.5 88 Z" />
    <path id="closed2" fill="#fff" filter="url(#dsFilter)" d="M 220.5 72 L 229.5 72 L 238.5 72 L 247.5 72 L 256.5 72 L 265.5 72 L 274.5 72 L 283.5 72 L 292.5 72 L 301.5 72 L 310.5 72 L 319.5 72 L 328.5 72 L 337.5 72 L 346.5 72 L 355.5 72 L 355.5 88 L 355.5 104 L 355.5 120 L 355.5 136 L 355.5 152 L 346.5 152 L 337.5 152 L 328.5 152 L 319.5 152 L 310.5 152 L 301.5 152 L 292.5 152 L 283.5 152 L 274.5 152 L 265.5 152 L 256.5 152 L 247.5 152 L 238.5 152 L 229.5 152 L 220.5 152 L 220.5 136 L 220.5 120 L 220.5 104 L 220.5 88 Z" />
  </g>
  <g id="lines" stroke="#000" stroke-width="2" fill="none">
    <path id="open3" marker-end="url(#Pointer)" d="M 184.5 120 L 193.5 120 L 202.5 120 L 211.5 120 " />
  </g>
  <g id="text" stroke="none" style="font-family:Consolas,Monaco,Anonymous Pro,Anonymous,Bitstream Sans Mono,monospace;font-size:15.2px" >
    <text id="obj4" x="31.5" y="40" fill="#000">git repositories on guest1</text>
    <text id="obj5" x="58.5" y="104" fill="#000">content1</text>
    <text id="obj6" x="238.5" y="104" fill="#000">content1.git</text>
    <text id="obj7" x="67.5" y="120" fill="#000">clone)</text>
    <text id="obj8" x="247.5" y="120" fill="#000">remote)</text>
  </g>
</svg>
